<?xml version="1.0" encoding="UTF-8"?>
<svg width="128pt" height="128pt" version="1.1" viewBox="0 0 128 128" xmlns="http://www.w3.org/2000/svg">
 <path d="m97.719 98.246c0.21094-3.9688-0.41016-7.3203-1.7031-10.145-2.9961-6.5391-9.4297-10.125-16.078-12.449-8.3438-2.9102-17.191-3.7891-21.969-4.8047-15.285-3.2266-22.961-10.441-25.672-17.855-0.13672-0.37109-0.26172-0.73438-0.37109-1.1094-20.391-6.6445-26.719-29.93-27.629-33.426-0.55859-2.1367 0.72656-4.3203 2.8594-4.8789 2.1367-0.55859 4.3203 0.72656 4.8789 2.8594 0.69922 2.6797 5.0117 20.016 19.305 26.641 0.73047-4.7031 3.0938-9.1719 6.6758-12.711 3.8555-3.8086 7.5156-4.8945 10.488-4.6602 3.9648 0.31641 7.2109 3.0039 8.9492 6.9141 2.1094 4.7461 1.8633 11.195-1.5898 15.656-2.3281 3.0117-6.0742 5.2695-11.691 5.3594-0.86328 0.011719-1.7109 0-2.5391-0.035157 3.0391 4.1055 8.8594 7.4883 17.984 9.4102 5 1.0547 14.23 2.0391 22.949 5.0781 8.7031 3.0352 16.801 8.1133 20.719 16.668 1.3711 2.9844 2.25 6.4102 2.4336 10.352 2.4492-2.9766 5.8086-6.1289 11.969-11.98 1.6016-1.5195 4.1289-1.4492 5.6484 0.14844 1.5234 1.6016 1.4531 4.1367-0.14453 5.6562-12.172 11.555-12.41 11.488-18.129 23.414-0.65625 1.3633-2.0195 2.2383-3.5312 2.2695s-2.9102-0.79688-3.6094-2.1289c-5.375-10.199-12.203-15.191-21.91-17.672-2.1406-0.54688-3.4297-2.7266-2.8867-4.8633 0.54688-2.1406 2.7266-3.4297 4.8633-2.8906 7.9688 2.0352 14.375 5.4219 19.727 11.172zm-58.602-52.891c1.5547 0.21484 3.1953 0.32031 4.9258 0.28906 2.2617-0.035156 3.9414-0.65625 5.0508-1.75 1.6406-1.625 1.9844-4.0898 1.5898-6.2305-0.34375-1.8945-1.1211-3.8398-2.8203-3.9688-1.2539-0.10156-2.6016 0.76563-4.2305 2.375-2.5898 2.5586-4.2734 5.8594-4.5156 9.2891z" fill-rule="evenodd"/>
</svg>
