<?xml version="1.0" encoding="UTF-8"?>
<svg width="128pt" height="128pt" version="1.1" viewBox="0 0 128 128" xmlns="http://www.w3.org/2000/svg">
 <path d="m124.01 47.559-11.254-30.598c-0.03125-0.085938-0.066406-0.17188-0.10547-0.25391-1.1523-2.5195-2.1992-4.2773-3.1445-5.2734-0.22266-0.23438-0.44922-0.44141-0.68359-0.625-1.0391-0.8125-2.0234-1.2188-2.9531-1.2188-1.1523 0-2.2148 0.625-3.1914 1.8789-0.066407 0.085938-0.13281 0.17969-0.19141 0.26953-5.3984 8.4023-9.7344 14.73-13 18.984h-0.003906c-1.6523 1.8789-3.4531 3.8867-5.4023 6.0352-1.2812 1.4102-1.2539 3.5703 0.0625 4.9492 0.71094 0.74609 1.668 1.125 2.6289 1.125 0.81641 0 1.6367-0.27344 2.3125-0.83203 1.4453-1.1914 3.3281-3.2695 5.6445-6.2344h-0.003907c1.707-1.9375 3.2695-3.7383 4.6836-5.4102h0.003906c-9.1562 37.879-17.887 59.844-26.184 65.891-0.16406 0.11719-0.31641 0.25-0.45703 0.39453-6.4922 6.6367-11.852 9.957-16.078 9.957-0.94141 0-1.8242-0.16406-2.6523-0.49219-0.054688-0.023438-0.11328-0.042969-0.16797-0.0625-2.7422-0.93359-5.543-2.9258-8.4023-5.9805h-0.003906l-13.418-17.484c-0.14453-0.1875-0.30859-0.36328-0.48828-0.51953-2.9023-2.543-5.6875-3.8125-8.3555-3.8125-0.76562 0-1.5234 0.10547-2.2695 0.31641h-0.003906c-5.3125 1.3008-9.9805 6.4336-13.996 15.395-0.019531 0.042969-0.039062 0.085938-0.054688 0.12891-3.2227 8.0156-3.9375 15.242-2.1445 21.68 0.44922 1.6055 1.9062 2.6562 3.4961 2.6562 0.32422 0 0.65234-0.042969 0.97656-0.13281 1.9336-0.53906 3.0625-2.543 2.5234-4.4727-1.3438-4.8203-0.73047-10.449 1.8359-16.891h-0.003906c3.0664-6.8398 6.1133-10.613 9.1406-11.32l0.1875-0.046875c0.10938-0.03125 0.22656-0.046875 0.35156-0.046875 0.77734 0 1.8711 0.60156 3.2812 1.8008h-0.003906l13.27 17.289c0.070312 0.089844 0.14062 0.17578 0.21875 0.25781 3.7266 4.0195 7.5547 6.7031 11.484 8.0508h-0.003906c1.6484 0.63672 3.3555 0.95312 5.1289 0.95312 6.2617 0 13.309-3.9727 21.137-11.918h-0.003906c10.137-7.668 20.25-33.223 30.336-76.664h0.003906l9.1172 24.793c0.53906 1.4688 1.9297 2.3789 3.4102 2.3789 0.41797 0 0.83984-0.070313 1.2539-0.22266 1.8828-0.69141 2.8477-2.7812 2.1562-4.6602z"/>
</svg>
