<?xml version="1.0" encoding="UTF-8"?>
<svg version="1.1" viewBox="3 15 122 100" xmlns="http://www.w3.org/2000/svg">
 <path d="m110.25 33.16c-3.9336 9.1367-8.9102 15.309-14.383 19.52-11.391 8.75-25.242 9.0586-37.832 8.9492-6.1797-0.054687-12.004-0.20312-16.891 0.94141-3.9688 0.92969-7.2383 2.7969-9.2109 6.8047-1.3906 2.8203-1.8711 5.6289-1.6719 8.3086 3.7852-1.4648 7.9609-2.1914 12.523-1.8281 6.0352 0.48047 11.875 3.5703 14.891 7.7812 2.3906 3.3359 3.1914 7.3281 1.5508 11.531-1.4805 3.7812-3.9492 6.1016-6.8867 7.3086-3.9609 1.6406-9.0156 1.1602-13.922-1.2656-4.7891-2.3633-9.3906-6.5508-12.453-11.75-0.89453 0.74609-1.75 1.5312-2.5547 2.3398-7.8711 7.8867-11.871 18.371-12.219 19.031-1.0352 1.9492-3.4609 2.6914-5.4102 1.6484-1.9492-1.0352-2.6914-3.4609-1.6484-5.4102 0.38672-0.72656 4.9297-12.219 13.609-20.926 1.5742-1.5742 3.2812-3.0586 5.1094-4.3906-1.1484-5.0117-0.78906-10.477 1.9062-15.93 3.1484-6.3906 8.2188-9.5703 14.566-11.055 5.4336-1.2695 11.91-1.2109 18.789-1.1484 10.91 0.09375 23.016 0.28906 32.883-7.2969 4.5898-3.5234 8.6367-8.7305 11.898-16.293-5.3633 3.0352-8.6094 3.7109-17.121 5.4844-2.1641 0.44922-4.2852-0.94141-4.7305-3.1055-0.44922-2.1602 0.94141-4.2812 3.1016-4.7305 10.852-2.2539 12.141-2.5586 22.949-9.7852 0.43359-0.71094 1.0898-1.2734 1.8867-1.6055 0.80859-0.32812 1.6914-0.39062 2.5352-0.17187 1.2148 0.32031 2.2109 1.1836 2.6836 2.3516 0 0 0.070312 0.17188 0.10547 0.25 0.03125 0.070312 0.058593 0.14062 0.089843 0.21094 2.3516 5.7891 2.9492 8.8242 3.4102 11.176 0.58594 2.9688 0.96875 4.5742 5.7695 11.121 1.3047 1.7812 0.92188 4.2852-0.85938 5.5898-1.7812 1.3047-4.2852 0.92188-5.5898-0.85938-5.1289-7-6.1484-9.6914-6.8086-12.586-0.019531-0.074219-0.035156-0.14844-0.050781-0.23047zm-77.535 52.164c2.2461 3.8633 5.7148 6.9766 9.25 8.7188 3.9414 1.9492 8.2031 2.3086 9.8086-1.7891 0.75-1.9102-0.10938-3.6484-1.5117-5.0117-1.9883-1.9141-5.0312-3.1719-8.1055-3.4141-3.4531-0.27344-6.6016 0.32812-9.4414 1.4883z" fill-rule="evenodd"/>
</svg>
