<?xml version="1.0" encoding="UTF-8"?>
<svg width="128pt" height="128pt" version="1.1" viewBox="0 0 128 128" xmlns="http://www.w3.org/2000/svg">
 <path d="m73.641 61.516c9.3555 3.5039 17.484 8.2461 21.684 14.066 4.4062 6.1055 3.9961 12.66-1.2539 20.004-0.84375 1.1797-0.57422 2.8281 0.61328 3.6758 0.46094 0.33594 1 0.48438 1.5234 0.48438 0.82031 0 1.6406-0.38672 2.1484-1.1016 8.2539-11.57 5.2344-20.609 1.2383-26.152-4.1094-5.7109-11.137-10.395-19.34-14.031 8.3711-4.3516 16.336-10.484 22.836-18.855l0.43359 14.156c0.039062 1.4219 1.2148 2.5586 2.6367 2.5586h0.074219c1.4609-0.039062 2.6016-1.2539 2.5469-2.7148l-0.70312-22.82c-0.023437-0.85938-0.47656-1.6641-1.2031-2.125-0.73047-0.47656-1.6406-0.55078-2.4297-0.23047l-21.137 8.6641c-1.3438 0.55078-1.9961 2.0859-1.4336 3.4453 0.55078 1.3438 2.0859 1.9844 3.4453 1.4336l13.594-5.5703c-7.0898 9.125-16.027 15.387-25.23 19.469-17.922-6.3516-38.988-8.2031-48.246-5.3633-5.0547 1.5508-6.1797 4.2891-6.2461 6.3008v0.16406c0.074219 2.2656 1.5117 6.4492 10.238 8.9336 9.6641 2.75 27.184 2.5117 44.199-4.3789zm-49.164-4.6094c0.074219-0.17969 0.625-0.79688 2.5117-1.3711 7.375-2.2656 23.551-0.96094 38.645 3.3555-13.684 4.25-26.969 4.1602-34.742 1.9453-4.1992-1.1914-6.2344-2.8398-6.4141-3.9297z"/>
</svg>
