<svg width="328" height="357" viewBox="0 0 328 357" fill="none" xmlns="http://www.w3.org/2000/svg">
<g opacity="0.95" filter="url(#filter0_f_6634_25603)">
<ellipse cx="104.508" cy="90.9792" rx="104.508" ry="90.9792" transform="matrix(-1 8.74228e-08 8.74228e-08 1 164.083 20)" fill="url(#paint0_radial_6634_25603)"/>
<path d="M-185 251C-185.087 321.457 -57.1649 337 100.528 336.999C258.22 336.999 308 295.837 308 250.999C308 206.162 258.22 165 100.528 165C-57.1649 165 -184.913 180.542 -185 251Z" fill="url(#paint1_linear_6634_25603)"/>
<path d="M-65 222.15C-65 287.403 15.2195 293.999 114.175 293.999C213.131 293.999 293.35 287.403 293.35 222.15C293.35 156.897 213.131 103.999 114.175 103.999C15.2195 103.999 -65 156.897 -65 222.15Z" fill="#DFE2E2"/>
<path d="M-65 222.15C-65 287.403 15.2195 293.999 114.175 293.999C213.131 293.999 293.35 287.403 293.35 222.15C293.35 156.897 213.131 103.999 114.175 103.999C15.2195 103.999 -65 156.897 -65 222.15Z" fill="url(#paint2_radial_6634_25603)"/>
<ellipse cx="113.74" cy="115.71" rx="113.74" ry="115.71" transform="matrix(-1 8.74228e-08 8.74228e-08 1 224.968 77.5024)" fill="#DFE2E2"/>
<ellipse cx="113.74" cy="115.71" rx="113.74" ry="115.71" transform="matrix(-1 8.74228e-08 8.74228e-08 1 224.968 77.5024)" fill="url(#paint3_radial_6634_25603)"/>
<path d="M-158.4 170.282C-158.4 218.797 -107.317 207.815 -55.0805 207.815C-2.84448 207.815 30.7635 218.797 30.7635 170.282C30.7635 121.767 -11.5822 82.4375 -63.8183 82.4375C-116.054 82.4375 -158.4 121.767 -158.4 170.282Z" fill="#DFE2E2"/>
<path d="M-158.4 170.282C-158.4 218.797 -107.317 207.815 -55.0805 207.815C-2.84448 207.815 30.7635 218.797 30.7635 170.282C30.7635 121.767 -11.5822 82.4375 -63.8183 82.4375C-116.054 82.4375 -158.4 121.767 -158.4 170.282Z" fill="url(#paint4_radial_6634_25603)"/>
</g>
<defs>
<filter id="filter0_f_6634_25603" x="-205" y="0" width="533" height="357" filterUnits="userSpaceOnUse" color-interpolation-filters="sRGB">
<feFlood flood-opacity="0" result="BackgroundImageFix"/>
<feBlend mode="normal" in="SourceGraphic" in2="BackgroundImageFix" result="shape"/>
<feGaussianBlur stdDeviation="10" result="effect1_foregroundBlur_6634_25603"/>
</filter>
<radialGradient id="paint0_radial_6634_25603" cx="0" cy="0" r="1" gradientTransform="matrix(57.5674 73.9628 -84.9612 50.1152 46.9406 58.2562)" gradientUnits="userSpaceOnUse">
<stop stop-color="#FDFEFE"/>
<stop offset="1" stop-color="#D2E3EB"/>
</radialGradient>
<linearGradient id="paint1_linear_6634_25603" x1="308" y1="274.233" x2="218.319" y2="268.912" gradientUnits="userSpaceOnUse">
<stop stop-color="#FDFEFE" stop-opacity="0.8"/>
<stop offset="1" stop-color="#D2E3EB"/>
</linearGradient>
<radialGradient id="paint2_radial_6634_25603" cx="0" cy="0" r="1" gradientTransform="matrix(80.5869 47.0976 69.7821 -54.7374 212.872 179.654)" gradientUnits="userSpaceOnUse">
<stop stop-color="#FDFEFE"/>
<stop offset="1" stop-color="#D2E0F0"/>
</radialGradient>
<radialGradient id="paint3_radial_6634_25603" cx="0" cy="0" r="1" gradientTransform="matrix(62.653 94.068 -92.4668 63.7379 51.0874 74.0919)" gradientUnits="userSpaceOnUse">
<stop stop-color="#FDFEFE"/>
<stop offset="1" stop-color="#D8E1EC"/>
</radialGradient>
<radialGradient id="paint4_radial_6634_25603" cx="0" cy="0" r="1" gradientTransform="matrix(-52.0996 71.4145 76.8915 48.3885 -11.7186 138.687)" gradientUnits="userSpaceOnUse">
<stop stop-color="white"/>
<stop offset="1" stop-color="#D2E3EB"/>
</radialGradient>
</defs>
</svg>
