<svg width="313" height="155" viewBox="0 0 313 155" fill="none" xmlns="http://www.w3.org/2000/svg">
<g opacity="0.8" filter="url(#filter0_fn_6710_100)">
<path d="M247.986 102.736C240.474 104.66 229.577 103.538 225.067 102.736C189.439 85.9767 114.045 55.8055 97.498 69.1973C76.8141 85.9369 51.7558 51.6475 32.076 64.0673C12.3963 76.487 33.9377 94.3067 23.8318 100.247C13.726 106.186 12.9282 128.866 26.4913 134.806C40.0544 140.746 77.0131 136.779 90.4254 138.292C103.838 139.805 108.681 131.787 100.112 127.498C91.5431 123.208 91.543 131.787 84.8368 131.787C78.1306 131.787 42.7371 131.787 46.4628 127.498C50.1884 123.208 67.3263 125.829 53.5415 122.493C39.7567 119.157 66.2086 115.106 84.8368 117.012C103.465 118.919 96.0138 108.195 88.5625 108.195C81.1112 108.195 61.3654 108.195 53.5415 102.736C45.7177 97.2774 104.802 93.182 118.182 97.7097C131.561 102.237 116.539 106.289 111.844 108.195C107.15 110.101 105.976 115.106 111.844 119.395C117.712 123.685 131.327 119.634 135.552 122.493C139.777 125.353 144.002 122.255 149.87 122.493C155.738 122.732 160.667 122.732 166.536 120.825C172.404 118.919 178.741 120.825 169.587 125.829C162.264 129.833 166.536 131.469 169.587 131.787H198.928C243.291 133.217 252.445 129.166 254.323 127.498C256.201 125.829 219.114 128.212 198.928 127.498C178.741 126.783 183.905 122.97 186.018 120.825C188.13 118.68 203.153 117.012 186.018 115.106C172.31 113.581 190.321 112.246 201.04 111.77C247.235 109.291 247.673 110.737 242.118 111.77C240.24 113.914 238.597 116.774 247.986 117.012C257.375 117.251 269.823 108.71 279.204 109.625C288.586 110.54 304.555 109.148 290.236 107.242C275.918 105.335 260.896 112.008 251.272 111.77C241.648 111.531 255.262 108.672 263.008 106.05C270.754 103.429 257.375 100.331 247.986 102.736Z" fill="url(#paint0_radial_6710_100)"/>
<ellipse cx="156.112" cy="52.4063" rx="47.4493" ry="36.1343" fill="url(#paint1_radial_6710_100)"/>
<path d="M246.003 93.222C246.041 105.825 190.977 108.605 123.099 108.605C55.2209 108.605 33.7932 101.242 33.7932 93.222C33.7932 85.202 55.2209 77.8394 123.099 77.8394C190.977 77.8394 245.966 80.6195 246.003 93.222Z" fill="url(#paint2_linear_6710_100)"/>
<path d="M138.545 77.9027C138.545 97.8677 118.624 99.8859 94.0508 99.8859C69.4775 99.8859 49.5569 97.8677 49.5569 77.9027C49.5569 57.9377 69.4775 41.7529 94.0508 41.7529C118.624 41.7529 138.545 57.9377 138.545 77.9027Z" fill="#DFE2E2"/>
<path d="M138.545 77.9027C138.545 97.8677 118.624 99.8859 94.0508 99.8859C69.4775 99.8859 49.5569 97.8677 49.5569 77.9027C49.5569 57.9377 69.4775 41.7529 94.0508 41.7529C118.624 41.7529 138.545 57.9377 138.545 77.9027Z" fill="url(#paint3_radial_6710_100)"/>
<ellipse cx="134.176" cy="55.7448" rx="36.958" ry="26.1188" fill="#DFE2E2"/>
<ellipse cx="134.176" cy="55.7448" rx="36.958" ry="26.1188" fill="url(#paint4_radial_6710_100)"/>
<path d="M232.485 76.1455C232.485 95.4144 209.292 91.0524 185.575 91.0524C161.859 91.0524 146.6 95.4144 146.6 76.1455C146.6 56.8766 165.826 41.2561 189.542 41.2561C213.259 41.2561 232.485 56.8766 232.485 76.1455Z" fill="#DFE2E2"/>
<path d="M232.485 76.1455C232.485 95.4144 209.292 91.0524 185.575 91.0524C161.859 91.0524 146.6 95.4144 146.6 76.1455C146.6 56.8766 165.826 41.2561 189.542 41.2561C213.259 41.2561 232.485 56.8766 232.485 76.1455Z" fill="url(#paint5_radial_6710_100)"/>
</g>
<defs>
<filter id="filter0_fn_6710_100" x="0" y="2.09808e-05" width="312.224" height="154.751" filterUnits="userSpaceOnUse" color-interpolation-filters="sRGB">
<feFlood flood-opacity="0" result="BackgroundImageFix"/>
<feBlend mode="normal" in="SourceGraphic" in2="BackgroundImageFix" result="shape"/>
<feGaussianBlur stdDeviation="8.13598" result="effect1_foregroundBlur_6710_100"/>
<feTurbulence type="fractalNoise" baseFrequency="1.3333333730697632 1.3333333730697632" stitchTiles="stitch" numOctaves="3" result="noise" seed="4179" />
<feColorMatrix in="noise" type="luminanceToAlpha" result="alphaNoise" />
<feComponentTransfer in="alphaNoise" result="coloredNoise1">
<feFuncA type="discrete" tableValues="0 0 0 0 0 0 1 1 1 1 1 1 1 1 1 1 1 1 1 1 1 1 1 1 1 1 1 1 1 1 1 1 1 1 1 1 1 1 1 1 1 1 1 1 0 0 0 0 0 0 0 0 0 0 0 0 0 0 0 0 0 0 0 0 0 0 0 0 0 0 0 0 0 0 0 0 0 0 0 0 0 0 0 0 0 0 0 0 0 0 0 0 0 0 0 0 0 0 0 0 "/>
</feComponentTransfer>
<feComposite operator="in" in2="effect1_foregroundBlur_6710_100" in="coloredNoise1" result="noise1Clipped" />
<feFlood flood-color="#C8EBF0" result="color1Flood" />
<feComposite operator="in" in2="noise1Clipped" in="color1Flood" result="color1" />
<feMerge result="effect2_noise_6710_100">
<feMergeNode in="effect1_foregroundBlur_6710_100" />
<feMergeNode in="color1" />
</feMerge>
</filter>
<radialGradient id="paint0_radial_6710_100" cx="0" cy="0" r="1" gradientTransform="matrix(77.0298 31.3749 -113.685 21.2588 79.0822 86.0049)" gradientUnits="userSpaceOnUse">
<stop stop-color="#FDFEFE"/>
<stop offset="1" stop-color="#D8E1EC"/>
</radialGradient>
<radialGradient id="paint1_radial_6710_100" cx="0" cy="0" r="1" gradientTransform="matrix(26.1371 29.3759 -38.5745 19.9043 129.975 39.4097)" gradientUnits="userSpaceOnUse">
<stop stop-color="#FDFEFE"/>
<stop offset="1" stop-color="#D2E3EB"/>
</radialGradient>
<linearGradient id="paint2_linear_6710_100" x1="33.7932" y1="97.3777" x2="71.7582" y2="91.9569" gradientUnits="userSpaceOnUse">
<stop stop-color="#FDFEFE" stop-opacity="0.8"/>
<stop offset="1" stop-color="#D2E3EB"/>
</linearGradient>
<radialGradient id="paint3_radial_6710_100" cx="0" cy="0" r="1" gradientTransform="matrix(-20.0118 14.4101 -17.3287 -16.7476 69.5417 64.9005)" gradientUnits="userSpaceOnUse">
<stop stop-color="#FDFEFE"/>
<stop offset="1" stop-color="#D2E0F0"/>
</radialGradient>
<radialGradient id="paint4_radial_6710_100" cx="0" cy="0" r="1" gradientTransform="matrix(20.358 21.2337 -30.0455 14.3874 113.818 46.3505)" gradientUnits="userSpaceOnUse">
<stop stop-color="#FDFEFE"/>
<stop offset="1" stop-color="#D8E1EC"/>
</radialGradient>
<radialGradient id="paint5_radial_6710_100" cx="0" cy="0" r="1" gradientTransform="matrix(23.6546 28.3638 -34.9107 19.2185 165.888 63.5966)" gradientUnits="userSpaceOnUse">
<stop stop-color="white"/>
<stop offset="1" stop-color="#D2E3EB"/>
</radialGradient>
</defs>
</svg>
